<svg width="88" height="75" viewBox="0 0 88 75" fill="none" xmlns="http://www.w3.org/2000/svg">
<g clip-path="url(#clip0_1_1537)">
<path d="M36.0209 -1.90329L55.5594 4.61836C57.6197 5.30616 58.239 7.92043 56.7063 9.46097L43.6894 22.5323C42.152 24.076 39.5268 23.4597 38.8375 21.3917L32.3158 1.79869C31.5533 -0.490348 33.7319 -2.66579 36.0193 -1.90174" fill="white"/>
<path d="M67.6131 8.616L87.1516 15.1377C89.2119 15.8255 89.8312 18.4397 88.2984 19.9803L75.2816 33.0516C73.7441 34.5952 71.119 33.979 70.4296 31.911L63.908 12.318C63.1455 10.0289 65.324 7.8535 67.6115 8.61755" fill="white"/>
<path d="M69.026 30.6723L62.5043 11.1338C61.8165 9.07353 59.2023 8.45265 57.6617 9.98697L44.5904 23.0038C43.0467 24.5413 43.6629 27.1664 45.731 27.8558L65.324 34.3774C67.613 35.1399 69.7885 32.9614 69.0244 30.6739" fill="white"/>
<path d="M37.5256 20.1981L31.004 0.659633C30.3162 -1.40066 27.7019 -2.01999 26.1613 -0.487221L13.09 12.5296C11.5464 14.0671 12.1626 16.6922 14.2307 17.3816L33.8236 23.9032C36.1127 24.6642 38.2881 22.4872 37.5241 20.1997" fill="white"/>
<path d="M88.9878 -12.4303L108.526 -5.90868C110.587 -5.22088 111.206 -2.60662 109.673 -1.06607L96.6563 12.0053C95.1188 13.5489 92.4937 12.9327 91.8043 10.8646L85.2827 -8.72835C84.5202 -11.0174 86.6987 -13.1928 88.9862 -12.4288" fill="white"/>
<path d="M90.4925 9.67263L83.9709 -9.86588C83.2831 -11.9262 80.6688 -12.5455 79.1283 -11.0127L66.0569 2.00412C64.5133 3.54156 65.1311 6.16672 67.1976 6.85607L86.7906 13.3777C89.0796 14.1387 91.255 11.9617 90.491 9.67419" fill="white"/>
<path d="M21.5148 48.8508L41.0533 55.3724C43.1136 56.0602 43.7345 58.6745 42.2002 60.2151L29.1833 73.2864C27.6459 74.83 25.0207 74.2138 24.3314 72.1458L17.8097 52.5528C17.0488 50.2637 19.2258 48.0883 21.5132 48.8524" fill="white"/>
<path d="M3.85925 -12.2654L23.3978 -5.74379C25.4581 -5.05599 26.0774 -2.44173 24.5446 -0.901177L11.5278 12.1701C9.99033 13.7138 7.36517 13.0976 6.67581 11.0295L0.155712 -8.56502C-0.605226 -10.8541 1.57177 -13.0295 3.85925 -12.2654Z" fill="white"/>
<path d="M59.5788 -0.246008L53.0572 -19.7845C52.3694 -21.8448 49.7551 -22.4641 48.2146 -20.9314L35.1433 -7.91452C33.5996 -6.37708 34.2174 -3.75192 36.2839 -3.06256L55.8769 3.45909C58.1659 4.22003 60.3413 2.04303 59.5773 -0.24445" fill="white"/>
<path d="M101.079 40.8104L94.5571 21.2719C93.8693 19.2116 91.255 18.5907 89.7144 20.125L76.6431 33.1419C75.0995 34.6793 75.7157 37.3045 77.7838 37.9938L97.3767 44.5155C99.6658 45.278 101.841 43.0994 101.077 40.812" fill="white"/>
<path d="M44.609 28.584L64.1475 35.1057C66.2078 35.7935 66.8272 38.4077 65.2944 39.9483L52.2775 53.0196C50.7401 54.5633 48.1149 53.947 47.4256 51.879L40.9039 32.286C40.1414 29.997 42.32 27.8215 44.6075 28.5856" fill="white"/>
<path d="M77.6142 61.1596L71.0925 41.6211C70.4047 39.5608 67.7905 38.9415 66.2499 40.4743L53.1786 53.4911C51.6349 55.0286 52.2511 57.6537 54.3192 58.3431L73.9122 64.8647C76.2012 65.6257 78.3767 63.4487 77.6126 61.1612" fill="white"/>
<path d="M46.1138 50.687L39.5922 31.1485C38.9044 29.0882 36.2901 28.4688 34.7495 30.0016L21.6782 43.0185C20.1346 44.5559 20.7508 47.1811 22.8188 47.8704L42.4118 54.3921C44.7009 55.153 46.8763 52.976 46.1122 50.6885" fill="white"/>
</g>
<defs>
<clipPath id="clip0_1_1537">
<rect width="113.458" height="106.15" fill="white" transform="translate(0 -32)"/>
</clipPath>
</defs>
</svg>
