<svg width="80" height="81" viewBox="0 0 80 81" fill="none" xmlns="http://www.w3.org/2000/svg">
<path d="M70 35C70 54.33 54.33 70 35 70C15.67 70 0 54.33 0 35C0 15.67 15.67 0 35 0C54.33 0 70 15.67 70 35ZM2.00924 35C2.00924 53.2203 16.7797 67.9908 35 67.9908C53.2203 67.9908 67.9908 53.2203 67.9908 35C67.9908 16.7797 53.2203 2.00924 35 2.00924C16.7797 2.00924 2.00924 16.7797 2.00924 35Z" fill="#585858"/>
<g filter="url(#filter0_d_1_1640)">
<circle cx="35" cy="35" r="28.2979" fill="#58BEE7"/>
<circle cx="35" cy="35" r="27.2979" stroke="url(#paint0_linear_1_1640)" stroke-width="2"/>
</g>
<path d="M22.1053 33.8428L30.8553 42.3684L48.8158 24.8684" stroke="white" stroke-width="6.44737"/>
<defs>
<filter id="filter0_d_1_1640" x="2.23406" y="2.97868" width="77.4468" height="77.4468" filterUnits="userSpaceOnUse" color-interpolation-filters="sRGB">
<feFlood flood-opacity="0" result="BackgroundImageFix"/>
<feColorMatrix in="SourceAlpha" type="matrix" values="0 0 0 0 0 0 0 0 0 0 0 0 0 0 0 0 0 0 127 0" result="hardAlpha"/>
<feOffset dx="5.95745" dy="6.70213"/>
<feGaussianBlur stdDeviation="5.21277"/>
<feComposite in2="hardAlpha" operator="out"/>
<feColorMatrix type="matrix" values="0 0 0 0 0 0 0 0 0 0 0 0 0 0 0 0 0 0 0.7 0"/>
<feBlend mode="normal" in2="BackgroundImageFix" result="effect1_dropShadow_1_1640"/>
<feBlend mode="normal" in="SourceGraphic" in2="effect1_dropShadow_1_1640" result="shape"/>
</filter>
<linearGradient id="paint0_linear_1_1640" x1="21.1842" y1="12.4342" x2="48.8158" y2="60.3289" gradientUnits="userSpaceOnUse">
<stop stop-color="#A3E5FF"/>
<stop offset="1" stop-color="#0E96CD"/>
</linearGradient>
</defs>
</svg>
