<svg width="80" height="81" viewBox="0 0 80 81" fill="none" xmlns="http://www.w3.org/2000/svg">
<g filter="url(#filter0_d_1_1667)">
<circle cx="35" cy="35" r="28.2979" fill="#1C1C1E"/>
</g>
<g clip-path="url(#clip0_1_1667)">
<path d="M46.2829 35C46.2836 35.2736 46.2134 35.5428 46.0793 35.7813C45.9451 36.0198 45.7515 36.2195 45.5173 36.361L31.0027 45.2402C30.758 45.3901 30.4777 45.4719 30.1908 45.4772C29.9039 45.4825 29.6208 45.4111 29.3707 45.2705C29.123 45.132 28.9166 44.93 28.7729 44.6853C28.6291 44.4406 28.5531 44.162 28.5527 43.8782V26.1218C28.5531 25.838 28.6291 25.5594 28.7729 25.3147C28.9166 25.07 29.123 24.868 29.3707 24.7295C29.6208 24.5889 29.9039 24.5175 30.1908 24.5228C30.4777 24.5281 30.758 24.6099 31.0027 24.7598L45.5173 33.639C45.7515 33.7805 45.9451 33.9802 46.0793 34.2187C46.2134 34.4572 46.2836 34.7264 46.2829 35Z" fill="#585858"/>
</g>
<defs>
<filter id="filter0_d_1_1667" x="2.23406" y="2.97871" width="77.4468" height="77.4468" filterUnits="userSpaceOnUse" color-interpolation-filters="sRGB">
<feFlood flood-opacity="0" result="BackgroundImageFix"/>
<feColorMatrix in="SourceAlpha" type="matrix" values="0 0 0 0 0 0 0 0 0 0 0 0 0 0 0 0 0 0 127 0" result="hardAlpha"/>
<feOffset dx="5.95745" dy="6.70213"/>
<feGaussianBlur stdDeviation="5.21277"/>
<feComposite in2="hardAlpha" operator="out"/>
<feColorMatrix type="matrix" values="0 0 0 0 0 0 0 0 0 0 0 0 0 0 0 0 0 0 0.7 0"/>
<feBlend mode="normal" in2="BackgroundImageFix" result="effect1_dropShadow_1_1667"/>
<feBlend mode="normal" in="SourceGraphic" in2="effect1_dropShadow_1_1667" result="shape"/>
</filter>
<clipPath id="clip0_1_1667">
<rect width="25.7895" height="25.7895" fill="white" transform="translate(22.1053 22.1053)"/>
</clipPath>
</defs>
</svg>
