<svg width="17" height="23" viewBox="0 0 17 23" fill="none" xmlns="http://www.w3.org/2000/svg">
<g clip-path="url(#clip0_1_1721)">
<path d="M15.3002 23H1.7012C1.50937 22.9352 1.30617 22.8942 1.12832 22.8015C0.369275 22.4063 0.00177174 21.7578 0.00177174 20.8832C0.00177174 16.0857 0.00177174 11.2878 0.00177174 6.49028C0.00177174 5.89887 -0.00390906 5.30745 0.00351968 4.71648C0.0118224 4.07376 0.261777 3.54805 0.745082 3.13712C1.31622 2.65102 1.98787 2.67308 2.67612 2.70864C2.66126 2.83781 2.64465 2.95573 2.63504 3.07366C2.57342 3.82306 2.78886 4.45633 3.36568 4.94243C3.76246 5.27684 4.2261 5.39072 4.72382 5.39117C7.14952 5.39297 9.57522 5.39297 12.0005 5.39027C12.2321 5.39027 12.4646 5.37541 12.6949 5.35291C13.5256 5.27054 14.2724 4.50584 14.3449 3.64707C14.3711 3.33876 14.3493 3.0264 14.3493 2.69693C14.5783 2.69693 14.8168 2.69288 15.055 2.69783C15.5283 2.70774 15.9465 2.86887 16.3113 3.18393C16.6972 3.517 16.8868 3.95898 17 4.44778V21.2483C16.8694 21.5606 16.7745 21.8959 16.6002 22.1795C16.3048 22.6597 15.8228 22.8758 15.3002 23ZM11.0964 17.3037C11.0199 17.1894 10.9827 17.1128 10.9277 17.0548C10.7044 16.8194 10.4837 16.5808 10.2469 16.3603C9.9353 16.07 9.49088 16.133 9.26496 16.4836C9.08973 16.7555 9.12338 17.0773 9.3729 17.3406C9.64033 17.6228 9.91957 17.8928 10.2346 18.2093C10.1341 18.2894 10.0598 18.3375 9.9991 18.3996C9.7675 18.6368 9.52934 18.8686 9.31391 19.1211C9.08405 19.3907 9.11027 19.7643 9.35149 20.0128C9.5927 20.2612 9.95365 20.2873 10.2167 20.0515C10.4352 19.8557 10.6332 19.6347 10.8407 19.4258C10.9316 19.3345 11.0243 19.2449 11.1366 19.1342C11.4285 19.4438 11.6963 19.7391 11.9765 20.0209C12.1617 20.2067 12.3903 20.2648 12.6394 20.1698C12.8758 20.0798 13.0191 19.8993 13.0637 19.6455C13.1078 19.3952 13.0055 19.1949 12.8377 19.0221C12.5729 18.7494 12.309 18.4757 12.0285 18.1858C12.3142 17.8964 12.5782 17.63 12.8412 17.3622C13.0099 17.1902 13.1096 16.9882 13.0624 16.7379C12.9605 16.1978 12.3689 15.9935 11.973 16.3729C11.6867 16.6474 11.4267 16.9508 11.0959 17.3046L11.0964 17.3037ZM11.1112 9.17101C10.8241 8.8699 10.5659 8.59715 10.3059 8.32665C10.1389 8.15291 9.94229 8.05299 9.69976 8.10205C9.45418 8.15201 9.28201 8.30009 9.19723 8.54539C9.10459 8.81364 9.17669 9.04814 9.36285 9.24348C9.77449 9.67556 10.1901 10.1036 10.6083 10.5285C10.9439 10.8692 11.2939 10.8638 11.6347 10.5181C11.9397 10.2089 12.2408 9.89521 12.5432 9.58329C12.8762 9.23943 13.2162 8.90186 13.54 8.54899C13.7987 8.26723 13.7899 7.88556 13.5417 7.62226C13.2878 7.35265 12.9133 7.34545 12.6258 7.60965C12.5231 7.70417 12.4287 7.80814 12.3313 7.90851C11.9332 8.32035 11.5351 8.73263 11.1121 9.17056L11.1112 9.17101ZM11.151 13.1795C11.1051 13.1687 11.0959 13.1692 11.0916 13.1651C10.8224 12.8932 10.5576 12.6164 10.284 12.3495C9.99123 12.0637 9.61543 12.061 9.35192 12.332C9.08799 12.6034 9.08711 12.9941 9.36809 13.292C9.7876 13.7367 10.2132 14.176 10.6454 14.6081C10.9408 14.9029 11.2917 14.8961 11.5932 14.6031C11.7724 14.429 11.9432 14.2449 12.1176 14.0653C12.5791 13.5895 13.044 13.1169 13.5011 12.6367C13.8079 12.3144 13.803 11.9049 13.5033 11.6303C13.2302 11.3805 12.8766 11.3963 12.5882 11.6897C12.1032 12.183 11.6269 12.6853 11.151 13.1795ZM5.22548 9.43477C5.63144 9.43477 6.0374 9.43657 6.44336 9.43432C6.88209 9.43161 7.18623 9.15796 7.19104 8.76638C7.19584 8.37616 6.88908 8.0881 6.45516 8.0863C5.63625 8.08315 4.8169 8.0827 3.99799 8.0863C3.57718 8.0881 3.27653 8.3694 3.27173 8.75378C3.26692 9.14401 3.57368 9.43071 4.00761 9.43387C4.41356 9.43702 4.81952 9.43477 5.22548 9.43477ZM5.23116 14.1517C5.63712 14.1517 6.04308 14.1517 6.44904 14.1517C6.46346 14.1517 6.47788 14.1517 6.49274 14.1517C6.8952 14.1386 7.19104 13.8533 7.19147 13.4779C7.19191 13.103 6.89607 12.8077 6.49361 12.8046C5.65285 12.7987 4.81209 12.7974 3.97134 12.8082C3.83412 12.81 3.68293 12.8595 3.56407 12.932C3.32154 13.08 3.22715 13.3775 3.30319 13.6521C3.38621 13.9528 3.62131 14.1431 3.94818 14.1494C4.37555 14.1575 4.80335 14.1512 5.23116 14.1521V14.1517ZM5.2281 18.8682C5.63406 18.8682 6.04002 18.8704 6.44598 18.8677C6.8834 18.865 7.18842 18.5887 7.19147 18.1975C7.19453 17.8069 6.88821 17.5215 6.45341 17.5202C5.64149 17.5175 4.83001 17.5175 4.01809 17.5202C3.58067 17.5215 3.27566 17.7992 3.2726 18.1903C3.26954 18.581 3.57587 18.865 4.01067 18.8682C4.41662 18.8713 4.82258 18.8686 5.22854 18.8686L5.2281 18.8682Z" fill="white"/>
<path d="M8.50326 4.0427C7.22552 4.0427 5.94821 4.04315 4.67047 4.0427C4.1557 4.0427 3.89308 3.75104 3.93022 3.22489C4.00189 2.21624 4.79458 1.41148 5.77429 1.35342C5.83941 1.34937 5.90626 1.34126 5.97006 1.35072C6.40137 1.41463 6.67667 1.29356 6.92619 0.856969C7.30243 0.198039 7.96096 -0.0661636 8.70428 0.0139522C9.41918 0.0909174 9.94793 0.483395 10.2634 1.15178C10.3347 1.30301 10.4081 1.34937 10.5685 1.35522C10.9504 1.36872 11.345 1.35927 11.709 1.45874C12.5078 1.67658 13.0632 2.47774 13.0754 3.33201C13.0815 3.74879 12.8089 4.0409 12.4012 4.0418C11.102 4.0445 9.80242 4.0427 8.50326 4.0427Z" fill="white"/>
</g>
<defs>
<clipPath id="clip0_1_1721">
<rect width="17" height="23" fill="white"/>
</clipPath>
</defs>
</svg>
